# xmcd
#
# Track frame offsets: 
#        150
#        13746
#        42371
#        63557
#        80794
#        96666
#        117554
#        137975
#        150411
#        161274
#        185088
#        198709
#        216850
#        230481
#
# Disc length: 3261 seconds
#
# Revision: 0
# Processed by: cddbd v1.5.2PL0 Copyright (c) Steve Scherf et al.
# Submitted via: ExactAudioCopy v0.95b4
#
DISCID=d20cbb0e
DTITLE=Various Artist - Hihg On Blues
DYEAR=2000
DGENRE=Blues
TTITLE0=Can't judge a Book - Boulevard Blues Band
TTITLE1=Change My Life - Boulevard Blues Band
TTITLE2=Soul - Delta Blue
TTITLE3=When I Get The Blues - Delta Blue
TTITLE4=Treat Her Right - Boulevard Blues Band
TTITLE5=Boogie Chillen - Delta Blue
TTITLE6=Slangdans - Valiant Swart
TTITLE7=Peace Of Mind #2 - Frosted Orange
TTITLE8=Sound Check - Valiant Swart
TTITLE9=Blues Vir Louise - Piet Botha
TTITLE10=Empty Arms - Boulevard Blues Band
TTITLE11=Suitcase Vol winter - Piet Botha
TTITLE12=My Love Is A Leopard - Frosted Orange
TTITLE13=Greater Than Her Parts - Frosted Orange
EXTD=
EXTT0=
EXTT1=
EXTT2=
EXTT3=
EXTT4=
EXTT5=
EXTT6=
EXTT7=
EXTT8=
EXTT9=
EXTT10=
EXTT11=
EXTT12=
EXTT13=
PLAYORDER=
